<svg id="Layer_2" data-name="Layer 2" xmlns="http://www.w3.org/2000/svg" viewBox="0 0 1019.11 266.23"><path d="M209.8,158.27V170.2c0,2.62-.88,4.22-4.22,4.22H145.05c-3.35,0-4.22-1.6-4.22-4.22V82.89c0-3.34,1.6-4.22,4.22-4.22h14.4c2.62,0,4.22.88,4.22,4.22v71.16h41.91C208.92,154.05,209.8,155.65,209.8,158.27Z"/><path d="M271.34,158.7v11.5c0,2.62-.87,4.22-4.21,4.22H226c-3.35,0-4.22-1.6-4.22-4.22V158.7c0-2.62.87-4.22,4.22-4.22h9.16V98.9h-8.87c-3.35,0-4.22-1.6-4.22-4.22V82.89c0-2.62.87-4.22,4.22-4.22h40.45c3.35,0,4.22,1.6,4.22,4.22V94.68c0,2.62-.87,4.22-4.22,4.22H258v55.58h9.17C270.47,154.48,271.34,156.08,271.34,158.7Z"/><path d="M369.12,82.89,338,170.05c-1.75,3.78-2.77,4.37-6,4.37h-14c-3.2,0-4.22-.59-6-4.37L280.8,82.89c-.73-1.89-.14-4.22,2.62-4.22h16.15c3.78,0,4.8,1.17,6,4.66l19.79,60.24L345,83.33c1.16-3.49,2.18-4.66,6.11-4.66H366.5C369.27,78.67,369.85,81,369.12,82.89Z"/><path d="M456.28,158.27V170.2c0,2.62-.87,4.22-4.22,4.22H386.87c-3.34,0-4.22-1.6-4.22-4.22V82.89c0-2.62.88-4.22,4.22-4.22h62.72c3.34,0,4.22,1.6,4.22,4.22V95c0,2.62-.88,4.22-4.22,4.22H405.64v15.86h39c3.35,0,4.22,1.6,4.22,4.22v11.35c0,2.62-.87,4.22-4.22,4.22h-39v19.21h46.42C455.41,154.05,456.28,155.65,456.28,158.27Z"/><path d="M549,112.43C549,132.66,535.58,146,510.7,146h-14V170.2c0,3.34-1.6,4.22-4.22,4.22h-14.4c-2.62,0-4.22-.88-4.22-4.22V82.89c0-2.62.87-4.22,4.22-4.22h32.74C535.87,78.67,549,92.35,549,112.43Zm-22,.44c0-7.57-5-13.68-16.3-13.68h-14V126.4h14C522.05,126.4,527,120.14,527,112.87Z"/><path d="M641.08,82.89v62.28c0,22.84-21.25,31.43-38.56,31.43S564.1,168,564.1,145.17V82.89c0-3.34,1.6-4.22,4.22-4.22h14.41c2.62,0,4.22.88,4.22,4.22V142c0,9.17,6,14.4,15.57,14.4s15.71-5.23,15.71-14.4V82.89c0-3.34,1.6-4.22,4.22-4.22h14.41C639.47,78.67,641.08,79.55,641.08,82.89Z"/><path d="M730.42,158.27V170.2c0,2.62-.88,4.22-4.22,4.22H665.67c-3.35,0-4.22-1.6-4.22-4.22V82.89c0-3.34,1.6-4.22,4.22-4.22h14.4c2.62,0,4.22.88,4.22,4.22v71.16H726.2C729.54,154.05,730.42,155.65,730.42,158.27Z"/><path d="M817.14,146c0,20.66-16.3,30.56-38.71,30.56-18.19,0-39.14-10.48-39.14-30.85,0-3.35.87-4.07,4.22-4.07h14.12c3.34,0,4.94.43,5.23,4.07a10.09,10.09,0,0,0,2.77,6c2.91,3.49,8.87,4.8,14.26,4.8,7.86,0,14.26-1.75,14.26-9.9s-12.95-8.29-25.32-12.22c-14.7-4.65-28.23-10.47-28.23-28.95,0-18.92,17.17-28.23,35.36-29,18.48,0,38.7,8.44,38.7,27.65,0,3.49-.87,4.07-4.22,4.07H796.18c-2.76,0-3.2-2-3.92-3.93a12,12,0,0,0-3.06-4.36c-2.76-2.62-8-3.93-12.37-3.93-4.8,0-12.8,1.89-12.8,8.44,0,8.87,21.39,12.07,27.21,14.4C801.71,122,817.14,126.25,817.14,146Z"/><path d="M907.79,158.27V170.2c0,2.62-.87,4.22-4.22,4.22H838.38c-3.34,0-4.22-1.6-4.22-4.22V82.89c0-2.62.88-4.22,4.22-4.22H901.1c3.34,0,4.22,1.6,4.22,4.22V95c0,2.62-.88,4.22-4.22,4.22h-44v15.86h39c3.35,0,4.22,1.6,4.22,4.22v11.35c0,2.62-.87,4.22-4.22,4.22h-39v19.21h46.42C906.92,154.05,907.79,155.65,907.79,158.27Z"/><path d="M1001.64,174.42H984.47c-3.49,0-5.24-1.31-7.27-4.37l-15.72-23.43c-1.31-1.74-1.6-3.34-1.6-7.42V127.56c0-2.62.87-4.22,4.22-4.22H967c7.13,0,13.82-4.94,13.82-11.78,0-7.57-5.82-12.37-13.38-12.37H948.09v71c0,3.34-1.6,4.22-4.21,4.22H929.47c-2.62,0-4.07-.88-4.07-4.22V83c0-2.62.72-4.22,4.07-4.22h36.67c15.86,0,22.84,3.2,29,9.31,5.39,5.24,8.44,13.53,8.44,22.85,0,15.27-11.2,25.9-20.22,29l20.51,29.83C1005.13,171.8,1004.41,174.42,1001.64,174.42Z"/><polygon points="131.09 9.47 131.09 67.67 255.04 67.67 131.09 9.47"/><polygon points="131.09 121.56 131.09 67.67 7.13 67.67 131.09 121.56"/></svg>